Patient4_TMGait_0pt5_02_left_16_EMG.mot
version=1
nRows=23
nColumns=33
inDegrees=no
endheader
time	1LAddLong	2LGlutMax	3LGlutMed	4LIliopsoas	5LSemiMemb	6LBicFemLong	7LRecFem	8LVastMed	9LVastLat	10LGasMed	11LTibAnt	12lTibPost	13LPeroneusLong	14LSol	15LExtDigLong	16LFlexDigLong	17RAddLong	18RGlutMax	19RGlutMed	20RIliopsoas	21RSemiMemb	22RBicFemLong	23RRecFem	24RVastMed	25RVastLat	26RGasMed	27RTibAnt	28RTibPost	29RPeroneusLong	30RSol	31RExtDigLong	32RFlexDigLong
21.58	0.012665	0.007629	-0.039063	0.014954	0.007629	-0.063324	-0.16495	-0.003204	0.13962	-0.029297	0.033722	0.011292	0.10941	0.022278	0.045929	0.003815	-0.019226	-0.042572	-0.30716	0.01358	-0.002441	-0.14725	-0.095825	-0.005951	0.010071	-0.027466	-0.026398	-0.00351	-0.66528	-0.060577	-0.002747	-0.002441
21.581	0.010376	-0.000916	-0.021515	0.04837	0.007477	-0.060577	-0.13977	0.005493	0.1239	-0.029602	-0.034332	0.017242	0.10757	0.027618	-0.121	0.011292	-0.001984	-0.059967	-0.11765	0.002289	0.039673	-0.20432	-0.11566	-0.010223	-0.018005	-0.075531	0.039063	-0.007172	-1.3197	-0.05188	-0.001831	-0.001678
21.582	0.001984	-0.001678	-0.015259	0.053101	0.013275	-0.027618	-0.08255	0.009613	0.11246	-0.033112	-0.075989	0.010681	0.061493	-0.018768	-0.18692	0.014343	0	-0.060577	0.076752	-0.026855	0.062408	-0.26703	-0.027008	0.067139	-0.005035	-0.1416	0.029144	-0.011444	-0.83328	-0.047607	-0.000153	-0.008545
21.583	0.00412	0.011444	-0.012054	0.042419	0.006409	-0.010834	-0.014343	0.009613	0.11032	-0.021057	-0.06485	0.002441	0.027161	-0.074921	-0.22797	0.003967	0.013123	-0.000153	0.13916	-0.010223	0.10208	-0.35187	0.13107	0.15472	-0.036163	-0.081024	0.036926	-0.016022	0.42511	-0.072784	-0.006409	-0.008698
21.584	-0.003815	0.019684	-0.029755	-0.018311	0.017548	0.006714	0.027008	0.010223	0.11932	-0.023346	-0.076752	0.009918	0.036774	-0.13443	-0.18707	0.007629	0.019379	0.02243	0.15274	0.02533	0.097961	-0.1886	0.19714	0.10529	-0.065613	-0.00946	0.073853	-0.005188	1.4456	-0.055237	-0.005646	-0.007629
21.585	-0.002441	0.018463	-0.024414	-0.006866	-0.009003	-0.018311	0.009613	0.017395	0.12436	-0.041504	-0.072632	0.008392	0.06897	-0.14755	0.08667	0.004272	0.027466	0.006561	0.21896	-0.035095	0.08255	-0.17548	0.20905	0.07309	-0.090332	0.08728	0.090637	-0.021667	1.5648	-0.04425	-0.005188	-0.00824
21.586	0.005035	0.030518	-0.00061	0.002594	-0.04364	-0.036926	-0.001068	0.014801	0.10452	-0.074005	-0.079956	0.010376	0.085754	-0.037537	0.053558	0.017395	0.008698	-0.038757	0.21088	-0.055389	-0.084839	-0.16541	0.25879	0.006104	-0.078125	0.095367	0.097961	-0.032959	0.66727	-0.035858	-0.003967	-0.01358
21.587	0.002747	0.007172	-0.012207	0.007019	0.021515	-0.054474	-0.039063	0.018921	0.11978	-0.089264	-0.050964	0.000763	0.10071	0.031586	-0.032959	0.007629	0.016022	-0.069427	0.23575	-0.06134	-0.47363	-0.00824	0.25269	-0.11231	-0.15442	0.088806	0.038452	0.029755	-0.062103	-0.10361	-0.003662	-0.003357
21.588	0.009003	0	-0.009613	0.005646	0.006409	-0.042267	-0.10468	0.010986	0.12619	-0.11337	-0.015717	0.008087	0.10941	0.063782	-0.072327	0.003815	0.0177	-0.070953	-0.019684	0.049133	-0.42816	0.012054	0.025177	-0.1181	-0.14481	0.077972	-0.094604	0.070343	-0.030823	0.037537	0.00061	0.001984
21.589	0.016785	0.007172	-0.00824	-0.010071	-0.025024	-0.042572	-0.11551	0.006561	0.11978	-0.1062	0.000763	0.016327	0.091248	0.050201	-0.12207	0.01297	-0.02594	-0.007172	-0.059662	0.01297	-0.017853	0.047302	-0.26977	-0.087433	-0.024872	0.055542	-0.11643	0.007019	0.22476	0.13931	-0.00473	0.001221
21.59	0.018005	-0.005646	0.006561	0.000153	-0.041046	-0.03067	-0.086975	0.000305	0.112	-0.058746	0.034485	0.005951	0.091095	0.058441	-0.02182	-0.002747	-0.050354	0.028687	0.1416	0.046387	0.40588	0.038147	-0.33386	-0.047913	0.027924	0.023346	0.057831	-0.010223	0.029602	0.18585	-0.00061	-0.003357
21.591	0.013123	-0.045776	0.007782	0.003967	-0.02182	-0.057373	-0.008087	-0.008545	0.1207	0.004883	0.021973	0.002899	0.084991	0.024414	0.032349	0.001373	-0.037231	-0.034027	0.012207	0.06134	0.3418	-0.030823	-0.20187	-0.04837	0.032806	-0.053864	0.19196	-0.009766	-1.1537	0.14542	-0.003662	-0.001984
21.592	0.010681	-0.040283	-0.013428	0.014343	0.025787	-0.053558	0.024261	-0.015106	0.12314	0.041504	0.007629	0.006409	0.075836	-0.004578	0.054474	0.011597	0.006714	-0.020905	-0.18768	-0.002594	0.1239	-0.049286	-0.035095	0.080414	0.037384	-0.047455	0.072021	0.018311	-0.48431	0.16464	-0.005646	0.00412
21.593	0.011444	-0.025177	-0.017853	0.006409	0.027771	-0.068359	0.008698	-0.014191	0.11826	0.070343	0.016632	0.002594	0.076447	-0.021973	0.059814	-0.000458	0.00885	0.022125	0.168	-0.054779	-0.11078	-0.017242	0.014496	0.04425	-0.012665	-0.004883	-0.063171	0.000916	0.015869	0.15137	-0.002289	-0.000458
21.594	0.004578	-0.03067	-0.007172	0.003815	0.020142	-0.060272	0.000458	-0.005493	0.11536	0.048065	-0.001373	0.004883	0.058594	-0.007324	0.055084	0.019379	0.002747	0.046692	-0.00473	-0.077515	-0.14526	-0.002136	-0.14557	0.039368	0.018616	0.010529	-0.18066	-0.007629	-0.89874	0.008698	-0.001831	-0.001678
21.595	0.008545	-0.036316	0.018616	0.019531	0.010529	-0.07782	-0.020905	0.001831	0.1033	0	0.023499	0.008698	0.080566	0.005188	0.054474	0.015717	-0.000916	0.044708	0.015564	-0.071716	0.15366	-0.007782	-0.2124	0.067444	0.1091	0.012207	-0.35095	-0.001831	0.37674	-0.068054	-0.001221	0.002594
21.596	0.005951	-0.04303	0.030823	0.024719	0.000916	-0.085297	-0.048981	-0.001068	0.10483	-0.019073	0.003052	0.001678	0.089874	-0.018921	0.070343	0.014648	-0.003052	-0.013428	-0.19775	0.001984	0.036011	0.056305	-0.11444	0.034027	0.11505	0.00473	-0.085907	0.02533	1.2462	-0.069427	0.000458	0.004425
21.597	0.002441	-0.041656	0.038757	0.006561	-0.016022	-0.059204	-0.043793	0.006714	0.10056	-0.026093	0.002441	0.00885	0.096893	-0.026855	0.075226	0.008545	-0.002899	0.023193	-0.078125	-0.003204	-0.11765	0.03418	0.02533	0.044556	0.06073	0.00412	0.028229	0.012054	1.0249	-0.098877	-0.00412	-0.004578
21.598	0.006104	-0.024872	-0.001678	-0.017548	-0.010376	-0.054779	-0.055084	0.005798	0.10757	-0.044708	0.010834	0.006409	0.099487	-0.019989	0.041962	0.015564	-0.020752	0.06424	0.21088	0.022583	0.019073	-0.014343	0.027924	0.067139	0.026398	0.015106	-0.073547	-0.026245	0.45441	-0.019836	-0.005951	-0.009766
21.599	0.005646	-0.082397	-0.032043	-0.026093	-0.039063	-0.077209	-0.03891	0.01297	0.098572	-0.045929	0.001221	0.002136	0.088043	-0.008392	0.012512	0.012054	-0.013123	0.0383	-0.012054	0.084381	0.060425	-0.058136	0.050964	0.054474	0.018768	-0.010071	0.034027	-0.018616	-0.34225	0.070953	-0.001984	-0.012817
21.6	0.005341	-0.085144	0.020447	0.023651	-0.068054	-0.10498	-0.021057	0.010071	0.103	-0.028229	0.001678	0.003815	0.056763	-0.014343	-0.020142	0.00946	-0.00061	-0.016785	-0.40527	0.081482	-0.005188	-0.041809	0.034027	0.03952	0.019379	-0.03891	-0.010071	-0.015411	-0.36667	0.07309	-0.002289	-0.014038
21.601	0.005188	-0.084991	0.025024	0.046387	-0.020294	-0.12619	-0.037689	0.007172	0.10468	-0.011749	0.005493	0.002747	0.053864	-0.010986	-0.024719	0.018158	-0.010071	0.001221	0.054016	-0.082855	-0.036469	-0.01297	0.009155	0.050049	-0.003662	-0.039673	-0.00824	-0.011444	-0.233	0.046387	-0.003052	-0.010834
21.602	-0.00061	-0.086212	-0.002441	0.015411	0.028992	-0.13657	-0.011139	0.006714	0.10712	-0.014343	0.014343	0.002289	0.078278	-0.019989	-0.054932	0.014801	0.002899	0	0.62637	-0.080566	-0.042419	0.00824	-0.061951	0.065308	0.003662	-0.002747	-0.036316	-0.009766	0.091858	-0.011902	-0.005188	-0.007324
